<svg width="57" height="57" viewBox="0 0 57 57" fill="none" xmlns="http://www.w3.org/2000/svg">
<mask id="mask0_0_13510" style="mask-type:alpha" maskUnits="userSpaceOnUse" x="0" y="-1" width="57" height="58">
<rect y="26.9783" width="40" height="40" transform="rotate(-42.4121 0 26.9783)" fill="#FFD000"/>
</mask>
<g mask="url(#mask0_0_13510)">
<path d="M34.185 34.7463L31.8886 42.4876C31.7942 42.8372 31.6145 43.1142 31.3497 43.3185C31.0848 43.5228 30.7946 43.6375 30.4788 43.6626C30.1631 43.6876 29.8556 43.6393 29.5564 43.5177C29.2571 43.396 29.0165 43.1737 28.8344 42.8509L24.8766 35.8002L16.7855 36.0244C16.4118 36.0271 16.0916 35.934 15.8248 35.745C15.5581 35.556 15.3627 35.3112 15.2387 35.0107C15.1146 34.7101 15.0691 34.4131 15.102 34.1197C15.1349 33.8263 15.2762 33.5279 15.5258 33.2246L21.0161 27.2497L18.3211 19.6662C18.1989 19.3265 18.1892 18.9967 18.2921 18.6769C18.395 18.3571 18.5593 18.0942 18.7849 17.8881C19.0105 17.682 19.2872 17.5422 19.6149 17.4685C19.9427 17.3948 20.2702 17.4342 20.5976 17.5867L27.9071 20.9548L34.3528 16.0259C34.6774 15.8046 34.9873 15.6908 35.2825 15.6845C35.5778 15.6782 35.8694 15.7504 36.1575 15.901C36.4457 16.0517 36.6718 16.2683 36.836 16.551C37.0002 16.8337 37.064 17.161 37.0275 17.533L36.0744 25.5709L42.7393 30.1486C43.0444 30.359 43.244 30.6188 43.3382 30.9278C43.4324 31.2368 43.4527 31.5474 43.3993 31.8596C43.3459 32.1717 43.2055 32.4505 42.9781 32.6958C42.7507 32.9411 42.4587 33.0951 42.1019 33.1576L34.185 34.7463ZM30.2354 12.5071L29.3732 15.27C29.3064 15.4439 29.1838 15.5465 29.0054 15.5778C28.827 15.609 28.6928 15.5341 28.6026 15.3531L27.2401 12.8731L24.3731 13.009C24.1769 13.0001 24.0478 12.9205 23.9858 12.7703C23.9238 12.62 23.9552 12.469 24.08 12.3174L26.0648 10.1656L25.1249 7.46878C25.0535 7.30826 25.0896 7.16243 25.2332 7.03128C25.3767 6.90014 25.5252 6.87736 25.6787 6.96294L28.2797 8.14225L30.6017 6.35966C30.764 6.24902 30.9172 6.23137 31.0613 6.30669C31.2053 6.38202 31.2729 6.51779 31.2641 6.71401L30.8701 9.55701L33.2171 11.1377C33.3893 11.2438 33.4517 11.3843 33.4045 11.5591C33.3573 11.7339 33.244 11.8468 33.0648 11.8977L30.2354 12.5071Z" fill="#FFD000"/>
</g>
</svg>
